<svg xmlns="http://www.w3.org/2000/svg" version="1.1" xmlns:xlink="http://www.w3.org/1999/xlink" width="2000" height="208" viewBox="0 0 2000 208"><svg xml:space="preserve" width="2000" height="208" data-version="2" data-id="lg_Q2gM9ml24GWYVSUTH4" viewBox="0 0 569 208" x="0" y="0"><rect width="100%" height="100%" fill="transparent"></rect><circle r="99.82" fill="#fff74f" transform="translate(107.7 104)scale(1.0183)"></circle><path fill="#fff" d="M176.505 157.985h-26.33q1.19 0 2.39-2.4 1.2-2.39 1.2-7.86v-82.08q0-5.48-1.2-7.78-1.2-2.31-2.39-2.48h26.5q-.17.51 1.28 3.07 1.46 2.57 5.39 7.53 1.2 1.54 5.05 6.15 3.84 4.62 9.66 11.38 5.81 6.75 12.57 14.7 6.75 7.95 13.68 16.08 6.92 8.12 13.25 15.47h.34v-64.12q0-5.48-1.2-7.78-1.19-2.31-2.39-2.48h26.33q-1.19 0-2.39 2.39-1.2 2.39-1.2 8.04v81.91q0 5.47 1.2 7.86 1.2 2.4 2.39 2.4h-22.4q.17-.52-1.37-3.17-1.53-2.65-5.47-7.44-2.56-3.25-7.44-9.14-4.87-5.9-11.03-13.51-6.15-7.61-13.08-15.99-6.92-8.38-13.68-16.76-6.75-8.38-12.74-15.56h-.51v71.31q0 5.47 1.2 7.86 1.19 2.4 2.39 2.4"></path><rect width="110.46" height="102.6" x="-55.23" y="-51.3" fill="none" rx="0" ry="0" transform="translate(205.9 107.19)"></rect><path fill="#fff" d="M295.525 157.985h-24.28q1.19 0 2.3-2.4 1.12-2.39 1.12-7.86v-59.51q0-5.47-1.12-7.78-1.11-2.31-2.3-2.48h20.86v69.77q0 5.47 1.11 7.86 1.11 2.4 2.31 2.4m-13.85-96.45q-4.96 0-7.7-2.82-2.73-2.82-2.73-6.58 0-3.94 2.65-6.67 2.65-2.74 7.78-2.74 5.13 0 7.78 2.74 2.65 2.73 2.65 6.67 0 3.76-2.74 6.58-2.73 2.82-7.69 2.82"></path><rect width="24.28" height="115.26" x="-12.14" y="-57.63" fill="none" rx="0" ry="0" transform="translate(283.88 100.86)"></rect><path fill="#fff" d="M326.985 157.985h-24.28q1.2 0 2.31-2.4 1.11-2.39 1.11-7.86v-97.47q0-5.48-1.11-7.78-1.11-2.31-2.31-2.48h20.86v46.68l-.34 2.22.34.34q2.57-3.25 6.58-6.15 4.02-2.91 10.01-4.88 5.98-1.96 14.02-1.96 15.9 0 24.37 9.06 8.46 9.06 8.46 28.39v34.03q0 5.47 1.11 7.86 1.12 2.4 2.31 2.4h-24.28q1.2 0 2.31-2.4 1.11-2.39 1.11-7.86v-33.52q0-10.09-2.56-15.73-2.57-5.65-7.1-7.95-4.53-2.31-10.52-2.31-6.32 0-12.31 2.73-5.98 2.74-9.75 8.72-3.76 5.99-3.76 16.08v31.98q0 5.47 1.11 7.86 1.11 2.4 2.31 2.4"></path><rect width="87.72" height="117.99" x="-43.86" y="-58.99" fill="none" rx="0" ry="0" transform="translate(347.06 99.49)"></rect><path fill="#fff" d="M430.275 159.695q-18.64 0-26.17-6.76-7.52-6.75-7.52-18.21 0-8.04 4.02-13.77 4.02-5.72 12.14-8.8 8.12-3.08 20.6-3.08 8.9 0 15.48 1.28t10.77 2.99q4.19 1.71 5.9 2.91 0-10.09-2.48-16.24-2.48-6.16-7.95-8.98-5.47-2.82-14.88-2.82-10.09 0-18.04 2.31-7.95 2.3-12.74 4.96-4.78 2.65-5.98 3.84v-3.42l-1.71-12.82q1.54-.69 6.67-2.31 5.13-1.63 13.51-3.08 8.38-1.45 19.66-1.45 14.37 0 23.51 4.02 9.15 4.01 13.51 12.31 4.36 8.29 4.36 20.95v34.2q0 4.78 1.11 6.92 1.12 2.14 2.31 3.34h-20.86v-5.13l.34-3.25-.34-.17q-2.73 2.56-6.5 4.44-3.76 1.88-8.2 3.17-4.45 1.28-9.67 1.96-5.21.69-10.85.69m5.64-12.15q9.23 0 15.9-1.88t10.18-5.04q3.5-3.16 3.5-7.27 0-5.13-6.75-8.72-6.76-3.59-20.95-3.59-13.17 0-18.55 3.42-5.39 3.42-5.39 10.26 0 6.67 5.21 9.75 5.22 3.07 16.85 3.07"></path><rect width="89.77" height="83.45" x="-44.88" y="-41.73" fill="none" rx="0" ry="0" transform="translate(441.97 118.47)"></rect><path fill="#fff" d="M517.825 157.985h-24.28q1.19 0 2.3-2.4 1.12-2.39 1.12-7.86v-57.8q0-5.47-1.12-7.78-1.11-2.31-2.3-2.48 7.52 0 13.08-1.11 5.55-1.12 7.78-2.31v8.55l-.34 2.9.34.35q2.56-3.42 6.24-6.07 3.68-2.65 8.46-4.19 4.79-1.54 10.95-1.54 8.03 0 13.93 2.31 5.9 2.3 8.47 4.7l-3.42 14.36v5.13q-2.22-2.73-6.41-5.73-4.19-2.99-9.49-5.04-5.31-2.05-11.29-2.05-6.84 0-12.14 5.47-5.3 5.47-5.3 18.13v34.2q0 5.47 1.11 7.86 1.11 2.4 2.31 2.4"></path><rect width="68.91" height="81.74" x="-34.45" y="-40.87" fill="none" rx="0" ry="0" transform="translate(528.5 117.61)"></rect></svg></svg>